<svg width="1001" height="1001" viewBox="0 0 1001 1001" fill="none" xmlns="http://www.w3.org/2000/svg">
<path d="M1000 0.078125H0V1000.08H1000V0.078125Z" fill="#4A35A5"/>
<path d="M384.769 334.195C362.455 334.346 340.52 339.97 320.886 350.573V334.195H246.895V665.983H320.893V472.083L320.886 472.07C320.886 459.434 324.633 447.082 331.654 436.576C338.674 426.071 348.652 417.882 360.326 413.047C372 408.212 384.845 406.948 397.238 409.413C409.63 411.879 421.014 417.964 429.948 426.899L482.265 374.575C469.475 361.754 454.277 351.587 437.546 344.657C420.814 337.727 402.878 334.172 384.769 334.195V334.195Z" fill="white"/>
<path d="M800.859 499.291C800.733 486.871 799.247 474.502 796.426 462.406L796.412 462.296H796.394C787.947 425.481 767.496 392.52 738.261 368.603C709.027 344.686 672.668 331.17 634.909 330.183C597.151 329.196 560.136 340.795 529.692 363.153C499.248 385.51 477.104 417.358 466.746 453.681C456.387 490.005 458.403 528.742 472.475 563.794C486.547 598.847 511.877 628.224 544.477 647.302C577.076 666.379 615.095 674.073 652.548 669.173C690 664.273 724.76 647.057 751.354 620.235L697.863 566.751C683.591 581.213 665.055 590.712 644.981 593.852C624.907 596.992 604.355 593.607 586.349 584.193C568.343 574.78 553.834 559.837 544.956 541.561C536.077 523.286 533.299 502.643 537.029 482.67C540.759 462.698 550.801 444.449 565.677 430.61C580.554 416.771 599.479 408.072 619.669 405.792C639.858 403.513 660.247 407.774 677.834 417.947C695.421 428.121 709.279 443.671 717.369 462.309L588.14 536.922H796.702C799.455 524.832 800.877 512.478 800.942 500.078L800.845 499.291H800.859Z" fill="white"/>
</svg>
